<mxfile host="app.diagrams.net" modified="2023-11-02T15:59:45.603Z" agent="Mozilla/5.0 (Macintosh; Intel Mac OS X 10_15_7) AppleWebKit/605.1.15 (KHTML, like Gecko) Version/17.0 Safari/605.1.15" etag="aBUeio_EoIn_UdZQPEq0" version="22.0.8" type="github">
  <diagram name="Page-1" id="rHOIk4FPKu6s_9v7ZxiR">
    <mxGraphModel dx="954" dy="624" grid="1" gridSize="10" guides="1" tooltips="1" connect="1" arrows="1" fold="1" page="1" pageScale="1" pageWidth="827" pageHeight="1169" math="0" shadow="0">
      <root>
        <mxCell id="0" />
        <mxCell id="1" parent="0" />
        <mxCell id="m-gvXEVOMRxc1sOan1t3-5" style="edgeStyle=orthogonalEdgeStyle;rounded=0;orthogonalLoop=1;jettySize=auto;html=1;entryX=0;entryY=0.5;entryDx=0;entryDy=0;" edge="1" parent="1" source="m-gvXEVOMRxc1sOan1t3-1" target="m-gvXEVOMRxc1sOan1t3-2">
          <mxGeometry relative="1" as="geometry" />
        </mxCell>
        <mxCell id="m-gvXEVOMRxc1sOan1t3-1" value="SWIFT" style="whiteSpace=wrap;html=1;aspect=fixed;" vertex="1" parent="1">
          <mxGeometry x="100" y="100" width="80" height="80" as="geometry" />
        </mxCell>
        <mxCell id="m-gvXEVOMRxc1sOan1t3-4" style="edgeStyle=orthogonalEdgeStyle;rounded=0;orthogonalLoop=1;jettySize=auto;html=1;entryX=0;entryY=0.5;entryDx=0;entryDy=0;" edge="1" parent="1" source="m-gvXEVOMRxc1sOan1t3-2" target="m-gvXEVOMRxc1sOan1t3-3">
          <mxGeometry relative="1" as="geometry" />
        </mxCell>
        <mxCell id="m-gvXEVOMRxc1sOan1t3-2" value="SWING" style="whiteSpace=wrap;html=1;aspect=fixed;" vertex="1" parent="1">
          <mxGeometry x="310" y="100" width="80" height="80" as="geometry" />
        </mxCell>
        <mxCell id="m-gvXEVOMRxc1sOan1t3-7" style="edgeStyle=orthogonalEdgeStyle;rounded=0;orthogonalLoop=1;jettySize=auto;html=1;entryX=0;entryY=0.5;entryDx=0;entryDy=0;" edge="1" parent="1" source="m-gvXEVOMRxc1sOan1t3-3" target="m-gvXEVOMRxc1sOan1t3-6">
          <mxGeometry relative="1" as="geometry" />
        </mxCell>
        <mxCell id="m-gvXEVOMRxc1sOan1t3-3" value="IBM MQ" style="shape=process;whiteSpace=wrap;html=1;backgroundOutline=1;" vertex="1" parent="1">
          <mxGeometry x="530" y="110" width="120" height="60" as="geometry" />
        </mxCell>
        <mxCell id="m-gvXEVOMRxc1sOan1t3-9" style="edgeStyle=orthogonalEdgeStyle;rounded=0;orthogonalLoop=1;jettySize=auto;html=1;" edge="1" parent="1" source="m-gvXEVOMRxc1sOan1t3-6" target="m-gvXEVOMRxc1sOan1t3-8">
          <mxGeometry relative="1" as="geometry" />
        </mxCell>
        <mxCell id="m-gvXEVOMRxc1sOan1t3-6" value="listener" style="whiteSpace=wrap;html=1;aspect=fixed;" vertex="1" parent="1">
          <mxGeometry x="770" y="100" width="80" height="80" as="geometry" />
        </mxCell>
        <mxCell id="m-gvXEVOMRxc1sOan1t3-11" style="edgeStyle=orthogonalEdgeStyle;rounded=0;orthogonalLoop=1;jettySize=auto;html=1;" edge="1" parent="1" source="m-gvXEVOMRxc1sOan1t3-8" target="m-gvXEVOMRxc1sOan1t3-10">
          <mxGeometry relative="1" as="geometry" />
        </mxCell>
        <mxCell id="m-gvXEVOMRxc1sOan1t3-8" value="Mongo DB" style="shape=cylinder3;whiteSpace=wrap;html=1;boundedLbl=1;backgroundOutline=1;size=15;" vertex="1" parent="1">
          <mxGeometry x="950" y="270" width="60" height="80" as="geometry" />
        </mxCell>
        <mxCell id="m-gvXEVOMRxc1sOan1t3-10" value="Parser" style="whiteSpace=wrap;html=1;aspect=fixed;" vertex="1" parent="1">
          <mxGeometry x="770" y="380" width="80" height="80" as="geometry" />
        </mxCell>
        <mxCell id="m-gvXEVOMRxc1sOan1t3-13" value="Cache" style="shape=process;whiteSpace=wrap;html=1;backgroundOutline=1;size=0;" vertex="1" parent="1">
          <mxGeometry x="330" y="400" width="120" height="60" as="geometry" />
        </mxCell>
        <mxCell id="m-gvXEVOMRxc1sOan1t3-14" style="edgeStyle=orthogonalEdgeStyle;rounded=0;orthogonalLoop=1;jettySize=auto;html=1;entryX=1.05;entryY=0.367;entryDx=0;entryDy=0;entryPerimeter=0;" edge="1" parent="1" source="m-gvXEVOMRxc1sOan1t3-10" target="m-gvXEVOMRxc1sOan1t3-13">
          <mxGeometry relative="1" as="geometry" />
        </mxCell>
        <mxCell id="m-gvXEVOMRxc1sOan1t3-16" style="edgeStyle=orthogonalEdgeStyle;rounded=0;orthogonalLoop=1;jettySize=auto;html=1;" edge="1" parent="1" source="m-gvXEVOMRxc1sOan1t3-15" target="m-gvXEVOMRxc1sOan1t3-13">
          <mxGeometry relative="1" as="geometry" />
        </mxCell>
        <mxCell id="m-gvXEVOMRxc1sOan1t3-15" value="Matcher" style="whiteSpace=wrap;html=1;aspect=fixed;" vertex="1" parent="1">
          <mxGeometry x="80" y="390" width="80" height="80" as="geometry" />
        </mxCell>
        <mxCell id="m-gvXEVOMRxc1sOan1t3-23" style="edgeStyle=orthogonalEdgeStyle;rounded=0;orthogonalLoop=1;jettySize=auto;html=1;entryX=1;entryY=0.5;entryDx=0;entryDy=0;" edge="1" parent="1" source="m-gvXEVOMRxc1sOan1t3-17" target="m-gvXEVOMRxc1sOan1t3-20">
          <mxGeometry relative="1" as="geometry" />
        </mxCell>
        <mxCell id="m-gvXEVOMRxc1sOan1t3-17" value="UI" style="whiteSpace=wrap;html=1;aspect=fixed;" vertex="1" parent="1">
          <mxGeometry x="374" y="600" width="80" height="80" as="geometry" />
        </mxCell>
        <mxCell id="m-gvXEVOMRxc1sOan1t3-19" style="edgeStyle=orthogonalEdgeStyle;rounded=0;orthogonalLoop=1;jettySize=auto;html=1;entryX=1;entryY=0.5;entryDx=0;entryDy=0;" edge="1" parent="1" source="m-gvXEVOMRxc1sOan1t3-18" target="m-gvXEVOMRxc1sOan1t3-17">
          <mxGeometry relative="1" as="geometry" />
        </mxCell>
        <mxCell id="m-gvXEVOMRxc1sOan1t3-18" value="Actor" style="shape=umlActor;verticalLabelPosition=bottom;verticalAlign=top;html=1;outlineConnect=0;" vertex="1" parent="1">
          <mxGeometry x="580" y="610" width="30" height="60" as="geometry" />
        </mxCell>
        <mxCell id="m-gvXEVOMRxc1sOan1t3-24" style="edgeStyle=orthogonalEdgeStyle;rounded=0;orthogonalLoop=1;jettySize=auto;html=1;entryX=0.25;entryY=1;entryDx=0;entryDy=0;" edge="1" parent="1" source="m-gvXEVOMRxc1sOan1t3-20" target="m-gvXEVOMRxc1sOan1t3-13">
          <mxGeometry relative="1" as="geometry" />
        </mxCell>
        <mxCell id="m-gvXEVOMRxc1sOan1t3-20" value="Action" style="whiteSpace=wrap;html=1;aspect=fixed;" vertex="1" parent="1">
          <mxGeometry x="70" y="600" width="80" height="80" as="geometry" />
        </mxCell>
        <mxCell id="m-gvXEVOMRxc1sOan1t3-21" value="DealFilter" style="whiteSpace=wrap;html=1;aspect=fixed;" vertex="1" parent="1">
          <mxGeometry x="260" y="730" width="80" height="80" as="geometry" />
        </mxCell>
        <mxCell id="m-gvXEVOMRxc1sOan1t3-22" style="edgeStyle=orthogonalEdgeStyle;rounded=0;orthogonalLoop=1;jettySize=auto;html=1;entryX=0.588;entryY=0.038;entryDx=0;entryDy=0;entryPerimeter=0;" edge="1" parent="1" source="m-gvXEVOMRxc1sOan1t3-17" target="m-gvXEVOMRxc1sOan1t3-21">
          <mxGeometry relative="1" as="geometry" />
        </mxCell>
      </root>
    </mxGraphModel>
  </diagram>
</mxfile>
